<svg xmlns="http://www.w3.org/2000/svg" xmlns:xlink="http://www.w3.org/1999/xlink" width="500" zoomAndPan="magnify" viewBox="0 0 375 374.999991" height="500" preserveAspectRatio="xMidYMid meet" version="1.0"><defs><g/><clipPath id="81cfd2e811"><path d="M 62.996094 65.796875 L 290.417969 65.796875 L 290.417969 293.21875 L 62.996094 293.21875 Z M 62.996094 65.796875 " clip-rule="nonzero"/></clipPath><clipPath id="02f0f36e76"><path d="M 176.707031 65.796875 C 113.90625 65.796875 62.996094 116.707031 62.996094 179.507812 C 62.996094 242.308594 113.90625 293.21875 176.707031 293.21875 C 239.507812 293.21875 290.417969 242.308594 290.417969 179.507812 C 290.417969 116.707031 239.507812 65.796875 176.707031 65.796875 " clip-rule="nonzero"/></clipPath></defs><g clip-path="url(#81cfd2e811)"><g clip-path="url(#02f0f36e76)"><path fill="#ffffff" d="M 62.996094 65.796875 L 290.417969 65.796875 L 290.417969 293.21875 L 62.996094 293.21875 Z M 62.996094 65.796875 " fill-opacity="1" fill-rule="nonzero"/></g></g><g fill="#eb9a78" fill-opacity="1"><g transform="translate(74.861702, 225.63148)"><g><path d="M 87.074219 -95.039062 C 78.164062 -94.769531 69.121094 -94.769531 60.210938 -94.363281 C 49.410156 -93.960938 38.609375 -94.636719 27.675781 -93.824219 C 22.003906 -93.554688 16.199219 -93.824219 10.53125 -93.691406 C 8.910156 -93.691406 7.289062 -93.960938 5.804688 -93.148438 C 4.859375 -88.964844 6.480469 -84.914062 5.398438 -80.863281 C 6.613281 -79.515625 8.101562 -79.515625 9.585938 -79.648438 C 13.09375 -80.054688 16.605469 -80.191406 20.113281 -79.921875 C 22.949219 -79.785156 25.921875 -80.054688 28.621094 -79.515625 C 29.429688 -78.703125 29.296875 -78.03125 29.296875 -77.355469 C 29.429688 -71.550781 30.238281 -65.878906 29.699219 -60.210938 C 29.296875 -55.890625 29.699219 -51.570312 29.699219 -47.386719 C 29.566406 -39.015625 29.429688 -30.78125 29.96875 -22.410156 C 30.238281 -16.199219 30.375 -9.855469 29.566406 -3.511719 C 29.429688 -2.023438 29.296875 -0.539062 30.78125 0.40625 C 42.660156 -0.675781 54.675781 0.675781 66.554688 -0.136719 C 67.363281 -1.621094 67.230469 -2.835938 67.230469 -3.914062 C 67.09375 -6.75 66.554688 -9.449219 66.691406 -12.148438 C 67.09375 -19.441406 66.824219 -26.730469 66.554688 -34.019531 C 66.421875 -37.261719 67.230469 -40.5 67.230469 -43.738281 C 67.230469 -47.519531 66.960938 -51.300781 66.824219 -55.078125 C 66.421875 -60.613281 66.691406 -66.148438 66.148438 -71.550781 C 66.015625 -74.113281 65.746094 -76.679688 66.554688 -79.378906 C 74.113281 -79.648438 81.808594 -80.460938 89.640625 -80.59375 C 91.664062 -85.183594 89.234375 -89.773438 90.179688 -93.960938 C 89.234375 -95.039062 88.15625 -95.039062 87.074219 -95.039062 Z M 87.074219 -95.039062 "/></g></g></g><g fill="#719191" fill-opacity="1"><g transform="translate(169.394758, 225.63148)"><g><path d="M 29.296875 -94.636719 C 24.839844 -95.039062 20.386719 -94.363281 15.796875 -94.5 C 13.363281 -94.636719 10.933594 -94.90625 8.503906 -94.230469 C 8.101562 -93.421875 8.234375 -91.53125 8.234375 -90.855469 C 8.101562 -86.941406 8.503906 -84.375 8.503906 -80.460938 L 8.503906 -67.5 C 8.503906 -64.800781 8.503906 -61.964844 8.371094 -59.265625 C 8.234375 -56.160156 8.234375 -53.191406 8.371094 -50.21875 C 8.371094 -46.574219 8.503906 -42.929688 8.234375 -39.285156 C 7.964844 -36.71875 8.234375 -34.15625 8.371094 -31.453125 L 8.773438 -23.894531 L 8.773438 -13.90625 C 8.773438 -10.933594 8.910156 -8.101562 8.640625 -5.128906 C 8.503906 -3.511719 8.101562 -2.296875 9.179688 0 C 12.960938 -0.40625 16.875 -0.136719 20.789062 -0.40625 C 25.378906 -0.675781 29.96875 0 34.695312 -0.269531 C 42.660156 -0.675781 50.761719 -0.136719 58.726562 0 C 63.988281 0.136719 69.121094 -0.539062 74.386719 -0.40625 C 77.21875 -0.40625 80.054688 -1.351562 83.023438 -1.621094 C 86.398438 -2.023438 89.503906 -3.238281 92.609375 -4.859375 C 95.445312 -6.34375 97.875 -8.503906 100.304688 -10.664062 C 103.816406 -13.90625 106.378906 -17.683594 108.136719 -21.871094 C 110.429688 -27.269531 112.050781 -32.804688 112.320312 -38.746094 C 112.726562 -43.738281 113.265625 -48.058594 113.265625 -52.921875 C 113.265625 -56.429688 112.050781 -61.019531 112.050781 -62.910156 C 112.050781 -63.449219 111.78125 -63.988281 111.644531 -64.53125 C 110.160156 -67.90625 109.078125 -71.550781 107.191406 -74.65625 C 105.839844 -76.816406 104.488281 -78.839844 102.871094 -80.730469 C 101.25 -82.753906 98.820312 -83.835938 96.929688 -85.453125 C 94.90625 -87.34375 92.609375 -88.828125 90.179688 -89.910156 C 86.671875 -91.261719 83.160156 -92.878906 79.246094 -93.148438 C 76.546875 -93.421875 73.171875 -94.5 70.46875 -94.363281 C 67.230469 -94.09375 59.941406 -94.636719 56.835938 -94.5 C 53.191406 -94.230469 32.671875 -94.363281 29.296875 -94.636719 Z M 55.351562 -81.136719 C 61.425781 -80.863281 65.339844 -77.488281 68.039062 -72.226562 C 69.523438 -69.523438 70.335938 -67.09375 71.144531 -64.125 C 72.089844 -61.019531 72.765625 -57.238281 72.765625 -54.40625 C 72.898438 -51.03125 72.628906 -47.519531 72.898438 -44.011719 C 73.171875 -41.714844 72.898438 -31.320312 69.660156 -24.164062 C 68.445312 -21.464844 66.554688 -19.304688 64.125 -17.414062 C 61.289062 -15.253906 58.320312 -14.578125 55.078125 -14.308594 C 52.246094 -14.039062 48.734375 -14.175781 45.898438 -14.175781 C 44.953125 -16.066406 45.628906 -18.089844 45.496094 -20.113281 C 45.359375 -24.703125 44.953125 -29.429688 44.953125 -34.019531 C 44.953125 -38.203125 45.359375 -53.730469 45.089844 -55.484375 C 44.820312 -57.375 45.359375 -64.664062 45.089844 -69.253906 C 44.953125 -73.035156 45.765625 -76.679688 45.226562 -80.59375 C 46.304688 -80.863281 47.386719 -81.136719 48.464844 -81.136719 C 50.761719 -81 53.054688 -81.136719 55.351562 -81.136719 Z M 55.351562 -81.136719 "/></g></g></g></svg>